<?xml version="1.0" encoding="iso-8859-1"?>
<!-- Generator: Adobe Illustrator 21.1.0, SVG Export Plug-In . SVG Version: 6.00 Build 0)  -->
<svg xmlns="http://www.w3.org/2000/svg" xmlns:xlink="http://www.w3.org/1999/xlink" version="1.1" id="Layer_1" x="0px" y="0px" viewBox="0 0 40 40" style="enable-background:new 0 0 40 40;" xml:space="preserve">
<g>
	<rect x="3.5" y="3.5" style="fill:#FFF9DE;" width="32" height="26"/>
	<g>
		<path style="fill:#BA9B48;" d="M35,4v25H4V4H35 M36,3H3v27h33V3L36,3z"/>
	</g>
</g>
<rect x="6" y="3" style="fill:#FFF9DE;" width="3" height="27"/>
<rect x="18" y="-9" transform="matrix(-1.836970e-16 1 -1 -1.836970e-16 27 -12)" style="fill:#FFF9DE;" width="3" height="33"/>
<rect x="18" y="-3" transform="matrix(-1.836970e-16 1 -1 -1.836970e-16 33 -6)" style="fill:#FFF9DE;" width="3" height="33"/>
<rect x="18" y="3" transform="matrix(-1.836970e-16 1 -1 -1.836970e-16 39 3.552714e-15)" style="fill:#FFF9DE;" width="3" height="33"/>
<rect x="18" y="9" transform="matrix(-1.836970e-16 1 -1 -1.836970e-16 45 6)" style="fill:#FFF9DE;" width="3" height="33"/>
<rect x="12" y="3" style="fill:#FFF9DE;" width="3" height="27"/>
<rect x="18" y="3" style="fill:#FFF9DE;" width="3" height="27"/>
<rect x="24" y="3" style="fill:#FFF9DE;" width="3" height="27"/>
<rect x="30" y="3" style="fill:#FFF9DE;" width="3" height="27"/>
<g>
	<g>
		<path style="fill:#C29653;" d="M20.8,22.053h-2.315l-1.144-3.238h-5.003l-1.1,3.238H8.931l4.763-12.72h2.377L20.8,22.053z     M16.781,17.095l-1.765-5.074c-0.053-0.165-0.109-0.431-0.169-0.798h-0.035c-0.053,0.337-0.113,0.603-0.177,0.798l-1.747,5.074    H16.781z"/>
	</g>
	<g>
		<path style="fill:#C29653;" d="M29.288,22.053h-1.996v-1.419h-0.035c-0.627,1.088-1.546,1.632-2.759,1.632    c-0.893,0-1.593-0.243-2.097-0.727c-0.507-0.485-0.759-1.127-0.759-1.925c0-1.715,0.987-2.714,2.963-2.998l2.697-0.381    c0-1.295-0.615-1.943-1.845-1.943c-1.082,0-2.058,0.373-2.927,1.118v-1.801c0.958-0.568,2.064-0.852,3.317-0.852    c2.295,0,3.442,1.13,3.442,3.388V22.053z M27.301,17.591l-1.907,0.266c-0.592,0.077-1.037,0.22-1.336,0.43    c-0.298,0.21-0.447,0.578-0.447,1.104c0,0.385,0.138,0.699,0.412,0.945c0.276,0.245,0.644,0.368,1.105,0.368    c0.627,0,1.146-0.22,1.556-0.661c0.412-0.44,0.617-0.995,0.617-1.663V17.591z"/>
	</g>
</g>
<g>
	<path style="fill:#F2FAFF;" d="M25.724,39.5c-0.312,0-0.606-0.122-0.827-0.343l-6.054-6.053c-0.221-0.221-0.343-0.515-0.343-0.828   s0.122-0.606,0.343-0.828l12.606-12.606c0.221-0.221,0.515-0.343,0.827-0.343s0.606,0.122,0.827,0.343l6.054,6.053   c0.221,0.221,0.343,0.515,0.343,0.828s-0.122,0.606-0.343,0.828L26.551,39.157C26.33,39.378,26.036,39.5,25.724,39.5z"/>
	<g>
		<path style="fill:#788B9C;" d="M32.276,19c0.179,0,0.347,0.07,0.474,0.196l6.053,6.053C38.93,25.376,39,25.545,39,25.724    c0,0.179-0.07,0.347-0.196,0.474L26.198,38.804C26.071,38.93,25.903,39,25.724,39c-0.179,0-0.347-0.07-0.474-0.196l-6.053-6.053    c-0.261-0.261-0.261-0.687,0-0.948l12.606-12.606C31.929,19.07,32.097,19,32.276,19 M32.276,18c-0.427,0-0.855,0.163-1.181,0.489    L18.489,31.095c-0.652,0.652-0.652,1.71,0,2.362l6.053,6.053C24.869,39.837,25.296,40,25.724,40s0.855-0.163,1.181-0.489    l12.606-12.606c0.652-0.652,0.652-1.71,0-2.362l-6.053-6.053C33.131,18.163,32.704,18,32.276,18L32.276,18z"/>
	</g>
</g>
<g>
	<path style="fill:#B0C1D4;" d="M25.266,25.026l6.184-6.183c0.221-0.221,0.515-0.343,0.827-0.343s0.606,0.122,0.827,0.343   l6.054,6.053c0.221,0.221,0.343,0.515,0.343,0.828s-0.122,0.606-0.343,0.828l-6.183,6.183L25.266,25.026z"/>
	<g>
		<path style="fill:#66798F;" d="M32.276,19c0.179,0,0.347,0.07,0.474,0.196l6.053,6.053C38.93,25.376,39,25.545,39,25.724    c0,0.179-0.07,0.347-0.196,0.474l-5.83,5.83l-7.001-7.001l5.83-5.83C31.929,19.07,32.097,19,32.276,19 M32.276,18    c-0.427,0-0.855,0.163-1.181,0.489l-6.537,6.537l8.415,8.416l6.537-6.537c0.652-0.652,0.652-1.71,0-2.362l-6.053-6.053    C33.131,18.163,32.704,18,32.276,18L32.276,18z"/>
	</g>
</g>
<path style="fill:#CAD5E3;" d="M38.804,26.198l-1.163,1.163l-7.001-7.001l1.163-1.163C31.929,19.07,32.097,19,32.276,19  c0.179,0,0.347,0.07,0.474,0.196l6.053,6.053C38.93,25.376,39,25.545,39,25.724C39,25.903,38.93,26.071,38.804,26.198z"/>
</svg>
