<?xml version="1.0"?>
<svg xmlns="http://www.w3.org/2000/svg" viewBox="0 0 64 64">
    <path d="M 3 6 C 1.346 6 0 7.346 0 9 L 0 55 C 0 56.654 1.346 58 3 58 L 8 58 L 44 58 L 49 58 C 50.654 58 52 56.654 52 55 L 52 40.337891 L 59.294922 33.019531 L 62.121094 30.193359 C 64.071094 28.243359 64.071094 25.070094 62.121094 23.121094 L 57.878906 18.878906 C 56.287906 17.287906 53.89 17.019391 52 18.025391 L 52 17.65625 C 52 16.32125 51.479156 15.066094 50.535156 14.121094 L 43.878906 7.4648438 C 42.933906 6.5208437 41.67975 6 40.34375 6 L 40 6 L 8 6 L 3 6 z M 3 8 L 8 8 L 8 23 C 8 24.654 9.346 26 11 26 L 37 26 C 38.654 26 40 24.654 40 23 L 40 8 L 40.34375 8 C 41.13375 8 41.905844 8.3209063 42.464844 8.8789062 L 49.121094 15.535156 C 49.688094 16.102156 50 16.85425 50 17.65625 L 50 19.65625 C 50 19.66525 50.005859 19.672641 50.005859 19.681641 L 47.978516 21.707031 C 47.976516 21.709031 47.976609 21.712844 47.974609 21.714844 L 44.943359 24.755859 C 44.932359 24.765859 44.918203 24.769297 44.908203 24.779297 C 44.897203 24.790297 44.894766 24.803453 44.884766 24.814453 L 39.714844 30 L 11 30 C 9.346 30 8 31.346 8 33 L 8 56 L 3 56 C 2.449 56 2 55.551 2 55 L 2 9 C 2 8.449 2.449 8 3 8 z M 10 8 L 38 8 L 38 23 C 38 23.551 37.551 24 37 24 L 11 24 C 10.449 24 10 23.551 10 23 L 10 8 z M 33 10 C 31.346 10 30 11.346 30 13 L 30 19 C 30 20.654 31.346 22 33 22 C 34.654 22 36 20.654 36 19 L 36 13 C 36 11.346 34.654 10 33 10 z M 33 12 C 33.551 12 34 12.449 34 13 L 34 19 C 34 19.551 33.551 20 33 20 C 32.449 20 32 19.551 32 19 L 32 13 C 32 12.449 32.449 12 33 12 z M 54.341797 19.416016 C 55.110047 19.415891 55.879344 19.707469 56.464844 20.292969 L 60.707031 24.535156 C 61.875031 25.705156 61.876031 27.607344 60.707031 28.777344 L 58.585938 30.898438 L 50.101562 22.414062 L 50.152344 22.363281 L 52.222656 20.292969 C 52.807156 19.707969 53.573547 19.416141 54.341797 19.416016 z M 48.689453 23.830078 L 57.173828 32.314453 L 55.517578 33.974609 L 47.033203 25.490234 L 48.689453 23.830078 z M 45.623047 26.90625 L 54.107422 35.390625 L 50.294922 39.216797 L 50.292969 39.216797 L 41.457031 48.082031 L 41.005859 43.716797 C 40.952859 43.206797 40.522766 42.820313 40.009766 42.820312 L 38.179688 42.820312 L 38.179688 41.404297 L 43.544922 36.041016 C 43.935922 35.650016 43.935922 35.017953 43.544922 34.626953 C 43.153922 34.235953 42.521859 34.235953 42.130859 34.626953 L 36.810547 39.945312 L 33.021484 39.546875 L 45.623047 26.90625 z M 11 32 L 37.720703 32 L 30.138672 39.607422 C 29.979672 39.766422 29.879516 39.974266 29.853516 40.197266 L 29.117188 46.521484 L 28.412109 51.455078 C 28.367109 51.767078 28.472312 52.081688 28.695312 52.304688 C 28.884313 52.493688 29.139344 52.597656 29.402344 52.597656 C 29.449344 52.597656 29.496922 52.594891 29.544922 52.587891 L 34.464844 51.884766 L 40.849609 51.207031 C 41.077609 51.183031 41.291125 51.082922 41.453125 50.919922 L 42 50.371094 L 42 56 L 10 56 L 10 33 C 10 32.449 10.449 32 11 32 z M 15 36 C 14.448 36 14 36.448 14 37 C 14 37.552 14.448 38 15 38 L 21 38 C 21.552 38 22 37.552 22 37 C 22 36.448 21.552 36 21 36 L 15 36 z M 25 36 C 24.448 36 24 36.448 24 37 C 24 37.552 24.448 38 25 38 L 29 38 C 29.552 38 30 37.552 30 37 C 30 36.448 29.552 36 29 36 L 25 36 z M 15 40 C 14.448 40 14 40.448 14 41 C 14 41.552 14.448 42 15 42 L 26 42 C 26.552 42 27 41.552 27 41 C 27 40.448 26.552 40 26 40 L 15 40 z M 31.724609 41.421875 L 36.181641 41.890625 L 36.181641 43.818359 C 36.180641 44.371359 36.627688 44.820312 37.179688 44.820312 L 39.107422 44.820312 L 39.574219 49.332031 L 34.722656 49.845703 L 31.158203 46.283203 L 31.724609 41.421875 z M 50 42.34375 L 50 55 C 50 55.551 49.551 56 49 56 L 44 56 L 44 48.363281 L 50 42.34375 z M 14 48 C 13.448 48 13 48.448 13 49 L 13 51 C 13 51.552 13.448 52 14 52 C 14.552 52 15 51.552 15 51 L 15 49 C 15 48.448 14.552 48 14 48 z M 19 48 C 18.448 48 18 48.448 18 49 L 18 51 C 18 51.552 18.448 52 19 52 C 19.552 52 20 51.552 20 51 L 20 49 C 20 48.448 19.552 48 19 48 z M 24 48 C 23.448 48 23 48.448 23 49 L 23 51 C 23 51.552 23.448 52 24 52 C 24.552 52 25 51.552 25 51 L 25 49 C 25 48.448 24.552 48 24 48 z"/>
</svg>
