<?xml version="1.0"?>
<svg xmlns="http://www.w3.org/2000/svg" viewBox="0 0 50 50">
    <path style="text-indent:0;text-align:start;line-height:normal;text-transform:none;block-progression:tb;-inkscape-font-specification:Bitstream Vera Sans" d="M 5 2 C 3.346 2 2 3.346 2 5 L 2 45 C 2 46.654 3.346 48 5 48 L 45 48 C 46.654 48 48 46.654 48 45 L 48 28 L 46 30 L 46 45 C 46 45.552 45.552 46 45 46 L 40 46 L 40 36 L 38 38 L 38 46 L 12 46 L 12 28.8125 C 12 28.3715 12.3705 28 12.8125 28 L 32 28 L 34 26 L 12.8125 26 C 11.2685 26 10 27.2685 10 28.8125 L 10 46 L 5 46 C 4.448 46 4 45.552 4 45 L 4 5 C 4 4.448 4.448 4 5 4 L 10 4 L 10 19 C 10 20.093063 10.906937 21 12 21 L 35 21 C 36.093063 21 37 20.093063 37 19 L 37 4 L 37.59375 4 L 46 12.40625 L 46 16 C 47.101 16 48 16.375 48 16.375 L 48 12 C 48 11.734 47.90675 11.46825 47.71875 11.28125 L 38.71875 2.28125 C 38.53175 2.09325 38.266 2 38 2 L 5 2 z M 12 4 L 35 4 L 35 19 L 12 19 L 12 4 z M 28.8125 6 A 1.0001 1.0001 0 0 0 28 7 L 28 16 A 1.0001 1.0001 0 0 0 29 17 L 32 17 A 1.0001 1.0001 0 0 0 33 16 L 33 7 A 1.0001 1.0001 0 0 0 32 6 L 29 6 A 1.0001 1.0001 0 0 0 28.90625 6 A 1.0001 1.0001 0 0 0 28.8125 6 z M 30 8 L 31 8 L 31 15 L 30 15 L 30 8 z M 45.9375 18 C 44.894375 18.00025 43.82675 18.392 43.03125 19.1875 L 42.8125 19.4375 A 1.0001 1.0001 0 0 0 42.59375 19.625 L 42.34375 19.875 L 26.90625 35.3125 A 1.0001 1.0001 0 0 0 26.625 35.75 L 25.03125 41.75 A 1.0001 1.0001 0 0 0 26.25 42.96875 L 32.25 41.375 A 1.0001 1.0001 0 0 0 32.6875 41.09375 L 48.125 25.65625 C 48.123545 25.657341 48.258793 25.522605 48.375 25.40625 A 1.0001 1.0001 0 0 0 48.5625 25.1875 C 48.668661 25.0813 48.8125 24.96875 48.8125 24.96875 C 50.4045 23.37675 50.4025 20.7785 48.8125 19.1875 C 48.0155 18.391 46.980625 17.99975 45.9375 18 z M 43.75 21.28125 L 46.71875 24.25 L 31.46875 39.5 L 31.40625 39.53125 L 28.46875 36.59375 L 28.5 36.53125 L 43.75 21.28125 z M 6 41 L 6 43 L 8 43 L 8 41 L 6 41 z M 42 41 L 42 43 L 44 43 L 44 41 L 42 41 z" overflow="visible" font-family="Bitstream Vera Sans"/>
</svg>
