<svg height="511pt" viewBox="1 0 511.99906 511" width="511pt" xmlns="http://www.w3.org/2000/svg"><path d="m401.703125 174.964844h-181.027344c-7.523437 0-13.644531 6.117187-13.644531 13.640625v25.410156c0 7.523437 6.121094 13.644531 13.644531 13.644531h181.027344c7.523437 0 13.640625-6.121094 13.640625-13.644531v-25.410156c0-7.523438-6.117188-13.640625-13.640625-13.640625zm-1.359375 37.695312h-178.308594v-22.695312h178.308594zm0 0"/><path d="m460.421875 191.261719c4.117187-.480469 7.0625-4.207031 6.582031-8.320313-9.214844-78.96875-76.203125-138.523437-155.816406-138.523437-86.511719 0-156.890625 70.382812-156.890625 156.894531 0 86.507812 70.378906 156.890625 156.890625 156.890625 79.613281 0 146.601562-59.550781 155.816406-138.519531.480469-4.113282-2.464844-7.839844-6.582031-8.320313-4.101563-.480469-7.835937 2.464844-8.316406 6.582031-8.335938 71.40625-68.914063 125.257813-140.917969 125.257813-78.238281 0-141.890625-63.652344-141.890625-141.890625s63.652344-141.890625 141.890625-141.890625c72.003906 0 132.582031 53.847656 140.917969 125.257813.480469 4.113281 4.214843 7.0625 8.316406 6.582031zm0 0"/><path d="m311.1875.5c-110.726562 0-200.808594 90.082031-200.808594 200.8125 0 45.457031 15.253906 89.105469 43.222656 124.457031l-28.953124 28.953125c-7.082032.464844-14.03125 3.390625-19.433594 8.792969l-96.5625 96.859375c-11.613282 11.652344-11.523438 30.640625.191406 42.320312l.316406.320313c11.589844 11.613281 30.558594 11.996094 42.390625.128906l96.503907-96.804687c5.398437-5.398438 8.320312-12.34375 8.785156-19.421875l28.847656-28.851563c30.628906 24.566406 67.820312 39.683594 107.328125 43.226563 4.128906.363281 7.773437-2.671875 8.140625-6.796875.371094-4.128906-2.671875-7.773438-6.796875-8.140625-95.054687-8.535157-168.980469-88.441407-168.980469-185.042969 0-102.457031 83.351563-185.8125 185.808594-185.8125s185.8125 83.355469 185.8125 185.8125c0 46.695312-17.394531 91.332031-48.96875 125.6875-31.386719 34.144531-74.007812 55.226562-120.011719 59.355469-4.128906.371093-7.171875 4.015625-6.800781 8.140625.351562 3.898437 3.621094 6.828125 7.460938 6.828125.226562 0 .449218-.007813.679687-.027344 49.730469-4.464844 95.796875-27.246094 129.714844-64.148437 34.128906-37.128907 52.925781-85.371094 52.925781-135.835938 0-110.730469-90.085938-200.8125-200.8125-200.8125zm-173.746094 395.238281-96.511718 96.8125c-5.835938 5.855469-15.28125 5.746094-21.144532-.125l-.34375-.34375c-5.863281-5.851562-5.9375-15.324219-.164062-21.113281l96.554687-96.855469c9.199219-9.203125 25.359375-3.363281 26.046875 10.019531.214844 4.175782-1.253906 8.421876-4.4375 11.605469zm36.867188-47.507812-21.480469 21.480469c-2.585937-4.453126-6.414063-8.328126-10.976563-10.976563l21.515626-21.515625c3.464843 3.765625 7.609374 7.902344 10.941406 11.011719zm0 0"/></svg>